<svg xmlns="http://www.w3.org/2000/svg" style="display: none;"><symbol id="play-station-logo" viewBox="0 0 37.951 37.951"><title>play-station-logo</title><path d="M13.228,26.882l-0.045,2.895c0,0-1.778,0.918-5.747,0.873C3.469,30.603-0.043,29.501,0,27.108 c0.045-2.391,6.568-5.012,13.136-6.113v3.355l-6.979,1.838c0,0-1.194,1.521,0.411,1.564C10.22,27.858,13.228,26.882,13.228,26.882z M23.399,18.928c0,0,1.003,1.657,3.649,1.38c0.946-0.1,3.647-3.496,1.914-8.735c-1.731-5.239-14.321-7.354-14.321-7.354v27.033 l5.792,2.482l0.091-24.46l2.874,1.195L23.399,18.928L23.399,18.928z M29.283,21.962c0,0-3.828,0.188-7.298,1.701 c-0.032,0.016,0,2.852,0,2.852l8.803-2.068l3.103,1.379l-11.949,4.186v3.17c0,0,13.637-4.414,15.644-6.113 C39.589,25.364,32.886,21.136,29.283,21.962z"/></symbol><symbol id="windows-logo-silhouette" viewBox="0 0 475.082 475.082"><title>windows-logo-silhouette</title><polygon points="0,409.705 194.716,436.541 194.716,250.677 0,250.677 "/><polygon points="0,226.692 194.716,226.692 194.716,38.544 0,65.38 "/><polygon points="216.129,439.398 475.082,475.082 475.082,250.677 475.082,250.674 216.129,250.674 "/><polygon points="216.132,35.688 216.132,226.692 475.082,226.692 475.082,0 "/></symbol><symbol id="shopping-cart-commercial-interface-symbol-outline" viewBox="0 0 28.145 28.145"><title>shopping-cart-commercial-interface-symbol-outline</title><circle cx="9.026" cy="22.371" r="2.086"/><circle cx="25.016" cy="22.371" r="2.086"/><path d="M28.145,7.746c0-0.033-0.016-0.061-0.018-0.094c-0.008-0.071-0.021-0.137-0.041-0.203 c-0.021-0.064-0.043-0.125-0.072-0.183c-0.031-0.059-0.067-0.109-0.109-0.161c-0.042-0.054-0.086-0.102-0.139-0.146 c-0.049-0.042-0.101-0.074-0.157-0.106c-0.063-0.035-0.125-0.064-0.195-0.087c-0.03-0.01-0.054-0.031-0.085-0.038 c-0.04-0.009-0.076,0.001-0.115-0.002c-0.039-0.003-0.072-0.022-0.111-0.022L6.939,6.701c-0.015,0-0.027,0.008-0.042,0.009 L6.213,4.432C6.081,3.991,5.674,3.688,5.214,3.688H1.043C0.467,3.688,0,4.155,0,4.731c0,0.576,0.467,1.043,1.043,1.043h3.396 l3.949,13.162c0.132,0.441,0.539,0.742,0.999,0.742h15.294c0.49,0,0.912-0.338,1.019-0.816l2.42-10.888 c0.009-0.038-0.002-0.075,0.002-0.113C28.127,7.821,28.145,7.786,28.145,7.746z M23.846,17.592H10.163L7.521,8.786l18.281,0.003 L23.846,17.592z"/></symbol><symbol id="magnifying-search-lenses-tool" viewBox="0 0 28.931 28.932"><title>magnifying-search-lenses-tool</title><path d="M28.344,25.518l-6.114-6.115c1.486-2.067,2.303-4.537,2.303-7.137c0-3.275-1.275-6.355-3.594-8.672 C18.625,1.278,15.543,0,12.266,0C8.99,0,5.909,1.275,3.593,3.594C1.277,5.909,0.001,8.99,0.001,12.266 c0,3.276,1.275,6.356,3.592,8.674c2.316,2.316,5.396,3.594,8.673,3.594c2.599,0,5.067-0.813,7.136-2.303l6.114,6.115 c0.392,0.391,0.902,0.586,1.414,0.586c0.513,0,1.024-0.195,1.414-0.586C29.125,27.564,29.125,26.299,28.344,25.518z M6.422,18.111 c-1.562-1.562-2.421-3.639-2.421-5.846S4.86,7.983,6.422,6.421c1.561-1.562,3.636-2.422,5.844-2.422s4.284,0.86,5.845,2.422 c1.562,1.562,2.422,3.638,2.422,5.845s-0.859,4.283-2.422,5.846c-1.562,1.562-3.636,2.42-5.845,2.42S7.981,19.672,6.422,18.111z"/></symbol><symbol id="xbox" viewBox="0 0 512 512"><title>xbox</title><g> <g> <path d="M342.656,15.42c-53.952-20.512-119.392-20.512-173.312,0c-6.144,2.336-10.272,8.256-10.304,14.848 c-0.032,6.592,4,12.576,10.144,15.008c26.976,10.592,53.12,24.64,77.664,41.728c2.752,1.92,5.952,2.88,9.152,2.88 s6.4-0.96,9.152-2.88c24.576-17.12,50.72-31.168,77.664-41.76c6.144-2.4,10.176-8.352,10.144-14.976 C352.928,23.644,348.832,17.756,342.656,15.42z"/> </g> </g><g> <g> <path d="M62.343,422.783c-0.002,0.009-0.005,0.019-0.007,0.029c0.004-0.007,0.009-0.015,0.013-0.022 C62.347,422.788,62.345,422.785,62.343,422.783z"/> </g> </g><g> <g> <path d="M214.112,103.292C186.816,81.596,157.856,61.884,128,44.668c-5.344-3.072-11.968-2.784-17.088,0.672 C41.472,93.212,0,171.932,0,255.964c0,61.395,22.071,120.583,62.343,166.819c17.965-76.045,96.192-241.45,152.793-295.395 c3.36-3.2,5.152-7.68,4.96-12.288C219.904,110.492,217.728,106.172,214.112,103.292z"/> </g> </g><g> <g> <path d="M401.056,45.34c-5.088-3.488-11.648-3.776-17.056-0.672c-29.856,17.216-58.848,36.928-86.112,58.624 c-3.616,2.88-5.824,7.168-6.016,11.808c-0.224,4.64,1.6,9.12,4.928,12.288c56.576,53.92,135.04,219.168,152.992,295.232 c-39.04-65.984-125.984-221.28-182.912-274.368c-6.112-5.728-15.68-5.728-21.824,0C188.07,201.366,101.395,356.761,62.349,422.79 c0.006,0.007,0.013,0.015,0.019,0.022c48.16,56.64,118.72,89.152,193.632,89.152s145.472-32.512,193.824-89.344 C489.92,376.604,512,317.404,512,255.964C512,171.932,470.528,93.212,401.056,45.34z"/> </g> </g></symbol><symbol id="arrow-down-sign-to-navigate" viewBox="0 0 451.847 451.847"><title>arrow-down-sign-to-navigate</title><path d="M225.923,354.706c-8.098,0-16.195-3.092-22.369-9.263L9.27,151.157c-12.359-12.359-12.359-32.397,0-44.751 c12.354-12.354,32.388-12.354,44.748,0l171.905,171.915l171.906-171.909c12.359-12.354,32.391-12.354,44.744,0 c12.365,12.354,12.365,32.392,0,44.751L248.292,345.449C242.115,351.621,234.018,354.706,225.923,354.706z" fill="#505050" data-original="#000000" style=""/></symbol></svg>