<svg xmlns="http://www.w3.org/2000/svg" style="display: none;"><symbol id="play-station-logo" viewBox="0 0 37.951 37.951"><title>play-station-logo</title><path d="M13.228,26.882l-0.045,2.895c0,0-1.778,0.918-5.747,0.873C3.469,30.603-0.043,29.501,0,27.108 c0.045-2.391,6.568-5.012,13.136-6.113v3.355l-6.979,1.838c0,0-1.194,1.521,0.411,1.564C10.22,27.858,13.228,26.882,13.228,26.882z M23.399,18.928c0,0,1.003,1.657,3.649,1.38c0.946-0.1,3.647-3.496,1.914-8.735c-1.731-5.239-14.321-7.354-14.321-7.354v27.033 l5.792,2.482l0.091-24.46l2.874,1.195L23.399,18.928L23.399,18.928z M29.283,21.962c0,0-3.828,0.188-7.298,1.701 c-0.032,0.016,0,2.852,0,2.852l8.803-2.068l3.103,1.379l-11.949,4.186v3.17c0,0,13.637-4.414,15.644-6.113 C39.589,25.364,32.886,21.136,29.283,21.962z"/></symbol><symbol id="xbox-logo" viewBox="0 0 25.732 25.732"><title>xbox-logo</title><path style="fill:#030104;" d="M5.733,2.183C5.72,2.193,5.71,2.204,5.698,2.214c0.073-0.077,0.178-0.16,0.247-0.205 C7.959,0.7,10.286,0,12.868,0c2.415,0,4.677,0.667,6.608,1.827c0.14,0.083,0.522,0.345,0.719,0.583v0.001 c-1.863-2.054-7.339,2.353-7.339,2.353c-1.894-1.46-3.636-2.455-4.933-2.809C6.839,1.658,6.089,1.906,5.733,2.183z M22.305,4.125 c-0.057-0.063-0.119-0.122-0.176-0.187c-0.471-0.517-1.05-0.642-1.572-0.608c-0.475,0.149-2.67,0.94-5.375,3.494 c0,0,3.045,2.961,4.91,5.988c1.863,3.027,2.977,5.406,2.292,8.708c2.079-2.285,3.347-5.321,3.347-8.655 C25.731,9.491,24.432,6.42,22.305,4.125z M17.657,14.105c-0.826-0.927-2.055-2.255-3.678-3.869 c-0.355-0.353-0.73-0.721-1.124-1.102c0,0-0.593,0.593-1.365,1.373v-0.001c-0.988,0.998-2.269,2.3-2.98,3.06 c-1.266,1.351-4.893,5.594-5.097,7.973c0,0-0.807-1.887,0.964-6.239c1.157-2.845,4.653-7.117,6.113-8.509 c0,0-1.334-1.468-3.008-2.482l-0.01-0.003c0,0-0.019-0.015-0.049-0.034c-0.805-0.48-1.684-0.85-2.53-0.899 C4.029,3.434,3.482,4.066,3.482,4.066c-2.159,2.302-3.48,5.396-3.48,8.8c0,7.105,5.76,12.866,12.866,12.866 c3.771,0,7.164-1.626,9.518-4.211c-0.001-0.004-0.271-1.7-2.002-4.133C19.977,16.818,18.49,15.039,17.657,14.105z"/></symbol><symbol id="windows-logo-silhouette" viewBox="0 0 475.082 475.082"><title>windows-logo-silhouette</title><polygon points="0,409.705 194.716,436.541 194.716,250.677 0,250.677 "/><polygon points="0,226.692 194.716,226.692 194.716,38.544 0,65.38 "/><polygon points="216.129,439.398 475.082,475.082 475.082,250.677 475.082,250.674 216.129,250.674 "/><polygon points="216.132,35.688 216.132,226.692 475.082,226.692 475.082,0 "/></symbol><symbol id="right-arrow-angle" viewBox="0 0 792.033 792.033"><title>right-arrow-angle</title><path d="M617.858,370.896L221.513,9.705c-13.006-12.94-34.099-12.94-47.105,0c-13.006,12.939-13.006,33.934,0,46.874 l372.447,339.438L174.441,735.454c-13.006,12.94-13.006,33.935,0,46.874s34.099,12.939,47.104,0l396.346-361.191 c6.932-6.898,9.904-16.043,9.441-25.087C627.763,386.972,624.792,377.828,617.858,370.896z"/></symbol><symbol id="shopping-cart-commercial-interface-symbol-outline" viewBox="0 0 28.145 28.145"><title>shopping-cart-commercial-interface-symbol-outline</title><circle cx="9.026" cy="22.371" r="2.086"/><circle cx="25.016" cy="22.371" r="2.086"/><path d="M28.145,7.746c0-0.033-0.016-0.061-0.018-0.094c-0.008-0.071-0.021-0.137-0.041-0.203 c-0.021-0.064-0.043-0.125-0.072-0.183c-0.031-0.059-0.067-0.109-0.109-0.161c-0.042-0.054-0.086-0.102-0.139-0.146 c-0.049-0.042-0.101-0.074-0.157-0.106c-0.063-0.035-0.125-0.064-0.195-0.087c-0.03-0.01-0.054-0.031-0.085-0.038 c-0.04-0.009-0.076,0.001-0.115-0.002c-0.039-0.003-0.072-0.022-0.111-0.022L6.939,6.701c-0.015,0-0.027,0.008-0.042,0.009 L6.213,4.432C6.081,3.991,5.674,3.688,5.214,3.688H1.043C0.467,3.688,0,4.155,0,4.731c0,0.576,0.467,1.043,1.043,1.043h3.396 l3.949,13.162c0.132,0.441,0.539,0.742,0.999,0.742h15.294c0.49,0,0.912-0.338,1.019-0.816l2.42-10.888 c0.009-0.038-0.002-0.075,0.002-0.113C28.127,7.821,28.145,7.786,28.145,7.746z M23.846,17.592H10.163L7.521,8.786l18.281,0.003 L23.846,17.592z"/></symbol><symbol id="magnifying-search-lenses-tool" viewBox="0 0 28.931 28.932"><title>magnifying-search-lenses-tool</title><path d="M28.344,25.518l-6.114-6.115c1.486-2.067,2.303-4.537,2.303-7.137c0-3.275-1.275-6.355-3.594-8.672 C18.625,1.278,15.543,0,12.266,0C8.99,0,5.909,1.275,3.593,3.594C1.277,5.909,0.001,8.99,0.001,12.266 c0,3.276,1.275,6.356,3.592,8.674c2.316,2.316,5.396,3.594,8.673,3.594c2.599,0,5.067-0.813,7.136-2.303l6.114,6.115 c0.392,0.391,0.902,0.586,1.414,0.586c0.513,0,1.024-0.195,1.414-0.586C29.125,27.564,29.125,26.299,28.344,25.518z M6.422,18.111 c-1.562-1.562-2.421-3.639-2.421-5.846S4.86,7.983,6.422,6.421c1.561-1.562,3.636-2.422,5.844-2.422s4.284,0.86,5.845,2.422 c1.562,1.562,2.422,3.638,2.422,5.845s-0.859,4.283-2.422,5.846c-1.562,1.562-3.636,2.42-5.845,2.42S7.981,19.672,6.422,18.111z"/></symbol></svg>